<svg width="276" height="62" viewBox="0 0 276 62" fill="none" xmlns="http://www.w3.org/2000/svg">
<rect x="25" y="1" width="250" height="60" rx="10" stroke="#FFB72B"/>
<path d="M79.696 17.56H75.984V27H73.92V17.56H70.224V15.8H79.696V17.56ZM84.1989 27.112C83.3349 27.112 82.5562 26.9253 81.8629 26.552C81.1695 26.1787 80.6255 25.6613 80.2309 25C79.8469 24.328 79.6549 23.5707 79.6549 22.728C79.6549 21.8853 79.8469 21.1333 80.2309 20.472C80.6255 19.8107 81.1695 19.2933 81.8629 18.92C82.5562 18.5467 83.3349 18.36 84.1989 18.36C85.0735 18.36 85.8575 18.5467 86.5509 18.92C87.2442 19.2933 87.7829 19.8107 88.1669 20.472C88.5615 21.1333 88.7589 21.8853 88.7589 22.728C88.7589 23.5707 88.5615 24.328 88.1669 25C87.7829 25.6613 87.2442 26.1787 86.5509 26.552C85.8575 26.9253 85.0735 27.112 84.1989 27.112ZM84.1989 25.4C84.9349 25.4 85.5429 25.1547 86.0229 24.664C86.5029 24.1733 86.7429 23.528 86.7429 22.728C86.7429 21.928 86.5029 21.2827 86.0229 20.792C85.5429 20.3013 84.9349 20.056 84.1989 20.056C83.4629 20.056 82.8549 20.3013 82.3749 20.792C81.9055 21.2827 81.6709 21.928 81.6709 22.728C81.6709 23.528 81.9055 24.1733 82.3749 24.664C82.8549 25.1547 83.4629 25.4 84.1989 25.4ZM98.3849 18.456V27H96.3849V20.152H93.1849L93.1049 21.848C93.0515 22.9787 92.9449 23.928 92.7849 24.696C92.6355 25.4533 92.3742 26.056 92.0009 26.504C91.6382 26.9413 91.1369 27.16 90.4969 27.16C90.1982 27.16 89.8302 27.1013 89.3929 26.984L89.4889 25.304C89.6382 25.336 89.7662 25.352 89.8729 25.352C90.2782 25.352 90.5822 25.192 90.7849 24.872C90.9875 24.5413 91.1155 24.152 91.1689 23.704C91.2329 23.2453 91.2862 22.5947 91.3289 21.752L91.4729 18.456H98.3849ZM105.366 21.272C106.454 21.272 107.286 21.5173 107.862 22.008C108.449 22.4987 108.742 23.192 108.742 24.088C108.742 25.0267 108.422 25.752 107.782 26.264C107.142 26.776 106.241 27.0267 105.078 27.016L101.078 27V18.456H103.078V21.256L105.366 21.272ZM104.902 25.544C105.489 25.5547 105.937 25.432 106.246 25.176C106.556 24.92 106.71 24.5467 106.71 24.056C106.71 23.576 106.561 23.224 106.262 23C105.964 22.776 105.51 22.6587 104.902 22.648L103.078 22.632V25.528L104.902 25.544ZM114.052 23.576H112.5V27H110.5V18.456H112.5V21.912H114.1L116.628 18.456H118.772L115.668 22.568L118.98 27H116.628L114.052 23.576ZM123.918 27.112C123.054 27.112 122.275 26.9253 121.582 26.552C120.888 26.1787 120.344 25.6613 119.95 25C119.566 24.328 119.374 23.5707 119.374 22.728C119.374 21.8853 119.566 21.1333 119.95 20.472C120.344 19.8107 120.888 19.2933 121.582 18.92C122.275 18.5467 123.054 18.36 123.918 18.36C124.792 18.36 125.576 18.5467 126.27 18.92C126.963 19.2933 127.502 19.8107 127.886 20.472C128.28 21.1333 128.478 21.8853 128.478 22.728C128.478 23.5707 128.28 24.328 127.886 25C127.502 25.6613 126.963 26.1787 126.27 26.552C125.576 26.9253 124.792 27.112 123.918 27.112ZM123.918 25.4C124.654 25.4 125.262 25.1547 125.742 24.664C126.222 24.1733 126.462 23.528 126.462 22.728C126.462 21.928 126.222 21.2827 125.742 20.792C125.262 20.3013 124.654 20.056 123.918 20.056C123.182 20.056 122.574 20.3013 122.094 20.792C121.624 21.2827 121.39 21.928 121.39 22.728C121.39 23.528 121.624 24.1733 122.094 24.664C122.574 25.1547 123.182 25.4 123.918 25.4ZM143.067 18.456V27H141.083V20.152H136.875V27H134.875V18.456H143.067ZM150.502 18.36C151.334 18.36 152.075 18.5413 152.726 18.904C153.387 19.2667 153.905 19.7787 154.278 20.44C154.651 21.1013 154.838 21.864 154.838 22.728C154.838 23.592 154.651 24.36 154.278 25.032C153.905 25.6933 153.387 26.2053 152.726 26.568C152.075 26.9307 151.334 27.112 150.502 27.112C149.35 27.112 148.438 26.728 147.766 25.96V30.104H145.766V18.456H147.67V19.576C148.001 19.1707 148.406 18.8667 148.886 18.664C149.377 18.4613 149.915 18.36 150.502 18.36ZM150.278 25.4C151.014 25.4 151.617 25.1547 152.086 24.664C152.566 24.1733 152.806 23.528 152.806 22.728C152.806 21.928 152.566 21.2827 152.086 20.792C151.617 20.3013 151.014 20.056 150.278 20.056C149.798 20.056 149.366 20.168 148.982 20.392C148.598 20.6053 148.294 20.9147 148.07 21.32C147.846 21.7253 147.734 22.1947 147.734 22.728C147.734 23.2613 147.846 23.7307 148.07 24.136C148.294 24.5413 148.598 24.856 148.982 25.08C149.366 25.2933 149.798 25.4 150.278 25.4ZM164.828 22.776C164.828 22.9147 164.818 23.112 164.796 23.368H158.092C158.21 23.9973 158.514 24.4987 159.004 24.872C159.506 25.2347 160.124 25.416 160.86 25.416C161.799 25.416 162.572 25.1067 163.18 24.488L164.252 25.72C163.868 26.1787 163.383 26.5253 162.796 26.76C162.21 26.9947 161.548 27.112 160.812 27.112C159.874 27.112 159.047 26.9253 158.332 26.552C157.618 26.1787 157.063 25.6613 156.668 25C156.284 24.328 156.092 23.5707 156.092 22.728C156.092 21.896 156.279 21.1493 156.652 20.488C157.036 19.816 157.564 19.2933 158.236 18.92C158.908 18.5467 159.666 18.36 160.508 18.36C161.34 18.36 162.082 18.5467 162.732 18.92C163.394 19.2827 163.906 19.8 164.268 20.472C164.642 21.1333 164.828 21.9013 164.828 22.776ZM160.508 19.96C159.868 19.96 159.324 20.152 158.876 20.536C158.439 20.9093 158.172 21.4107 158.076 22.04H162.924C162.839 21.4213 162.578 20.92 162.14 20.536C161.703 20.152 161.159 19.96 160.508 19.96ZM175.416 27V21.336L172.536 26.104H171.672L168.84 21.32V27H167.016V18.456H169.112L172.152 23.8L175.336 18.456H177.208L177.224 27H175.416ZM179.907 18.456H181.907V24.088L186.627 18.456H188.451V27H186.451V21.368L181.747 27H179.907V18.456ZM199.205 18.456L195.205 27.688C194.832 28.616 194.378 29.2667 193.845 29.64C193.312 30.024 192.666 30.216 191.909 30.216C191.482 30.216 191.061 30.1467 190.645 30.008C190.229 29.8693 189.888 29.6773 189.621 29.432L190.421 27.96C190.613 28.1413 190.837 28.2853 191.093 28.392C191.36 28.4987 191.626 28.552 191.893 28.552C192.245 28.552 192.533 28.4613 192.757 28.28C192.992 28.0987 193.205 27.7947 193.397 27.368L193.541 27.032L189.813 18.456H191.893L194.581 24.776L197.285 18.456H199.205ZM208.994 27V21.336L206.114 26.104H205.25L202.418 21.32V27H200.594V18.456H202.69L205.73 23.8L208.914 18.456H210.786L210.802 27H208.994ZM74.896 43.576H73.344V47H71.344V38.456H73.344V41.912H74.944L77.472 38.456H79.616L76.512 42.568L79.824 47H77.472L74.896 43.576ZM84.2624 38.36C85.521 38.36 86.481 38.664 87.1424 39.272C87.8144 39.8693 88.1504 40.776 88.1504 41.992V47H86.2624V45.96C86.017 46.3333 85.665 46.6213 85.2064 46.824C84.7584 47.016 84.2144 47.112 83.5744 47.112C82.9344 47.112 82.3744 47.0053 81.8944 46.792C81.4144 46.568 81.041 46.264 80.7744 45.88C80.5184 45.4853 80.3904 45.0427 80.3904 44.552C80.3904 43.784 80.673 43.1707 81.2384 42.712C81.8144 42.2427 82.7157 42.008 83.9424 42.008H86.1504V41.88C86.1504 41.2827 85.969 40.824 85.6064 40.504C85.2544 40.184 84.7264 40.024 84.0224 40.024C83.5424 40.024 83.0677 40.0987 82.5984 40.248C82.1397 40.3973 81.7504 40.6053 81.4304 40.872L80.6464 39.416C81.0944 39.0747 81.633 38.8133 82.2624 38.632C82.8917 38.4507 83.5584 38.36 84.2624 38.36ZM83.9904 45.656C84.4917 45.656 84.9344 45.544 85.3184 45.32C85.713 45.0853 85.9904 44.7547 86.1504 44.328V43.336H84.0864C82.9344 43.336 82.3584 43.7147 82.3584 44.472C82.3584 44.8347 82.5024 45.1227 82.7904 45.336C83.0784 45.5493 83.4784 45.656 83.9904 45.656ZM97.8733 38.456V47H95.8733V43.688C95.0519 44.0827 94.1933 44.28 93.2973 44.28C92.1986 44.28 91.3559 44.0293 90.7693 43.528C90.1826 43.016 89.8893 42.2373 89.8893 41.192V38.456H91.8893V41.064C91.8893 41.608 92.0493 42.0133 92.3693 42.28C92.6893 42.5467 93.1426 42.68 93.7293 42.68C94.4759 42.68 95.1906 42.52 95.8733 42.2V38.456H97.8733ZM108.563 42.776C108.563 42.9147 108.552 43.112 108.531 43.368H101.827C101.944 43.9973 102.248 44.4987 102.739 44.872C103.24 45.2347 103.859 45.416 104.595 45.416C105.533 45.416 106.307 45.1067 106.915 44.488L107.987 45.72C107.603 46.1787 107.117 46.5253 106.531 46.76C105.944 46.9947 105.283 47.112 104.547 47.112C103.608 47.112 102.781 46.9253 102.067 46.552C101.352 46.1787 100.797 45.6613 100.403 45C100.019 44.328 99.8268 43.5707 99.8268 42.728C99.8268 41.896 100.013 41.1493 100.387 40.488C100.771 39.816 101.299 39.2933 101.971 38.92C102.643 38.5467 103.4 38.36 104.243 38.36C105.075 38.36 105.816 38.5467 106.467 38.92C107.128 39.2827 107.64 39.8 108.003 40.472C108.376 41.1333 108.563 41.9013 108.563 42.776ZM104.243 39.96C103.603 39.96 103.059 40.152 102.611 40.536C102.173 40.9093 101.907 41.4107 101.811 42.04H106.659C106.573 41.4213 106.312 40.92 105.875 40.536C105.437 40.152 104.893 39.96 104.243 39.96ZM114.638 47.112C113.753 47.112 112.958 46.9253 112.254 46.552C111.55 46.1787 111.001 45.6613 110.606 45C110.212 44.328 110.014 43.5707 110.014 42.728C110.014 41.8853 110.212 41.1333 110.606 40.472C111.001 39.8107 111.545 39.2933 112.238 38.92C112.942 38.5467 113.742 38.36 114.638 38.36C115.481 38.36 116.217 38.5307 116.846 38.872C117.486 39.2133 117.966 39.704 118.286 40.344L116.75 41.24C116.505 40.8453 116.196 40.552 115.822 40.36C115.46 40.1573 115.06 40.056 114.622 40.056C113.876 40.056 113.257 40.3013 112.766 40.792C112.276 41.272 112.03 41.9173 112.03 42.728C112.03 43.5387 112.27 44.1893 112.75 44.68C113.241 45.16 113.865 45.4 114.622 45.4C115.06 45.4 115.46 45.304 115.822 45.112C116.196 44.9093 116.505 44.6107 116.75 44.216L118.286 45.112C117.956 45.752 117.47 46.248 116.83 46.6C116.201 46.9413 115.47 47.112 114.638 47.112ZM126.737 40.152H123.745V47H121.745V40.152H118.737V38.456H126.737V40.152ZM134.38 42.552C135.436 42.872 135.964 43.5547 135.964 44.6C135.964 45.368 135.676 45.96 135.1 46.376C134.524 46.792 133.67 47 132.54 47H128.188V38.456H132.364C133.409 38.456 134.225 38.648 134.812 39.032C135.398 39.416 135.692 39.96 135.692 40.664C135.692 41.1013 135.574 41.48 135.34 41.8C135.116 42.12 134.796 42.3707 134.38 42.552ZM130.092 42.024H132.188C133.222 42.024 133.74 41.6667 133.74 40.952C133.74 40.2587 133.222 39.912 132.188 39.912H130.092V42.024ZM132.38 45.544C133.478 45.544 134.028 45.1867 134.028 44.472C134.028 44.0987 133.9 43.8213 133.644 43.64C133.388 43.448 132.988 43.352 132.444 43.352H130.092V45.544H132.38ZM141.902 47.112C141.038 47.112 140.259 46.9253 139.566 46.552C138.873 46.1787 138.329 45.6613 137.934 45C137.55 44.328 137.358 43.5707 137.358 42.728C137.358 41.8853 137.55 41.1333 137.934 40.472C138.329 39.8107 138.873 39.2933 139.566 38.92C140.259 38.5467 141.038 38.36 141.902 38.36C142.777 38.36 143.561 38.5467 144.254 38.92C144.947 39.2933 145.486 39.8107 145.87 40.472C146.265 41.1333 146.462 41.8853 146.462 42.728C146.462 43.5707 146.265 44.328 145.87 45C145.486 45.6613 144.947 46.1787 144.254 46.552C143.561 46.9253 142.777 47.112 141.902 47.112ZM141.902 45.4C142.638 45.4 143.246 45.1547 143.726 44.664C144.206 44.1733 144.446 43.528 144.446 42.728C144.446 41.928 144.206 41.2827 143.726 40.792C143.246 40.3013 142.638 40.056 141.902 40.056C141.166 40.056 140.558 40.3013 140.078 40.792C139.609 41.2827 139.374 41.928 139.374 42.728C139.374 43.528 139.609 44.1733 140.078 44.664C140.558 45.1547 141.166 45.4 141.902 45.4Z" fill="white"/>
<g clip-path="url(#clip0_0_43)">
<path d="M30 61C46.5685 61 60 47.5685 60 31C60 14.4315 46.5685 1 30 1C13.4315 1 0 14.4315 0 31C0 47.5685 13.4315 61 30 61Z" fill="url(#paint0_linear_0_43)"/>
<path d="M30 56.0001C16.2151 56.0001 5 44.7851 5 31.0001C5 17.2152 16.2151 6.00012 30 6.00012C43.7854 6.00012 55 17.2152 55 31.0001C55 44.7851 43.7854 56.0001 30 56.0001Z" fill="url(#paint1_linear_0_43)"/>
<path opacity="0.3" d="M42.8493 24.02C41.6614 24.02 40.6986 24.9829 40.6986 26.1708C40.6986 26.7526 40.9318 27.2784 41.3071 27.6657L36.8919 31.9461L32.3114 24.6819C33.0379 24.224 33.5241 23.4202 33.5241 22.4979C33.5241 21.0694 32.3661 19.9113 30.9375 19.9113C29.509 19.9113 28.3509 21.0694 28.3509 22.4979C28.3509 23.4184 28.8352 24.2214 29.5596 24.6799L24.981 31.9461L20.5676 27.6659C20.9431 27.2788 21.1765 26.7528 21.1765 26.1708C21.1765 24.9829 20.2136 24.02 19.0257 24.02C17.8379 24.02 16.875 24.9829 16.875 26.1708C16.875 27.3585 17.8379 28.3214 19.0257 28.3214C19.1564 28.3214 19.2829 28.3053 19.4072 28.2829L21.4466 38.1896H40.4284L42.4677 28.2829C42.592 28.3054 42.7186 28.3214 42.8493 28.3214C44.0371 28.3214 45 27.3585 45 26.1708C45 24.9829 44.0371 24.02 42.8493 24.02Z" fill="black"/>
<path opacity="0.3" d="M21.6879 39.3615L20.571 43.9637H41.3025L40.1857 39.3615H21.6879Z" fill="black"/>
<path d="M41.9118 23.0825C40.7239 23.0825 39.7611 24.0454 39.7611 25.2333C39.7611 25.8151 39.9943 26.3409 40.3696 26.7282L35.9544 31.0086L31.3739 23.7444C32.1004 23.2865 32.5866 22.4827 32.5866 21.5604C32.5866 20.1319 31.4286 18.9738 30 18.9738C28.5715 18.9738 27.4134 20.1319 27.4134 21.5604C27.4134 22.4809 27.8977 23.2839 28.6221 23.7424L24.0435 31.0086L19.6301 26.7284C20.0056 26.3413 20.239 25.8153 20.239 25.2333C20.239 24.0454 19.2761 23.0825 18.0882 23.0825C16.9004 23.0825 15.9375 24.0454 15.9375 25.2333C15.9375 26.421 16.9004 27.3839 18.0882 27.3839C18.2189 27.3839 18.3454 27.3678 18.4697 27.3454L20.5091 37.2521H39.4909L41.5302 27.3454C41.6545 27.3679 41.7811 27.3839 41.9118 27.3839C43.0996 27.3839 44.0625 26.421 44.0625 25.2333C44.0625 24.0454 43.0996 23.0825 41.9118 23.0825Z" fill="white"/>
<path d="M20.7504 38.424L19.6335 43.0262H40.365L39.2482 38.424H20.7504Z" fill="white"/>
</g>
<defs>
<linearGradient id="paint0_linear_0_43" x1="-3.16406e-07" y1="31" x2="60" y2="31" gradientUnits="userSpaceOnUse">
<stop stop-color="#FFCA05"/>
<stop offset="1" stop-color="#FAAC18"/>
</linearGradient>
<linearGradient id="paint1_linear_0_43" x1="5" y1="31.0001" x2="55" y2="31.0001" gradientUnits="userSpaceOnUse">
<stop stop-color="#FFB72B"/>
<stop offset="1" stop-color="#FFD435"/>
</linearGradient>
<clipPath id="clip0_0_43">
<rect width="60" height="60" fill="white" transform="translate(0 1)"/>
</clipPath>
</defs>
</svg>
