<svg width="276" height="62" viewBox="0 0 276 62" fill="none" xmlns="http://www.w3.org/2000/svg">
<rect x="25" y="1" width="250" height="60" rx="10" stroke="#FFB72B"/>
<mask id="mask0_0_34" style="mask-type:alpha" maskUnits="userSpaceOnUse" x="0" y="1" width="60" height="60">
<circle cx="30" cy="31" r="30" fill="#D9D9D9"/>
</mask>
<g mask="url(#mask0_0_34)">
<path fill-rule="evenodd" clip-rule="evenodd" d="M0 1H60V61H0V1Z" fill="white"/>
<path fill-rule="evenodd" clip-rule="evenodd" d="M0 1H20.0039V61H0V1Z" fill="#009246"/>
<path fill-rule="evenodd" clip-rule="evenodd" d="M39.9961 1H60V61H39.9961V1Z" fill="#CE2B37"/>
</g>
<path d="M76.72 27.16C75.5893 27.16 74.5653 26.9147 73.648 26.424C72.7413 25.9227 72.0267 25.2347 71.504 24.36C70.992 23.4853 70.736 22.4987 70.736 21.4C70.736 20.3013 70.9973 19.3147 71.52 18.44C72.0427 17.5653 72.7573 16.8827 73.664 16.392C74.5813 15.8907 75.6053 15.64 76.736 15.64C77.6533 15.64 78.4907 15.8 79.248 16.12C80.0053 16.44 80.6453 16.904 81.168 17.512L79.824 18.776C79.0133 17.9013 78.016 17.464 76.832 17.464C76.064 17.464 75.376 17.6347 74.768 17.976C74.16 18.3067 73.6853 18.7707 73.344 19.368C73.0027 19.9653 72.832 20.6427 72.832 21.4C72.832 22.1573 73.0027 22.8347 73.344 23.432C73.6853 24.0293 74.16 24.4987 74.768 24.84C75.376 25.1707 76.064 25.336 76.832 25.336C78.016 25.336 79.0133 24.8933 79.824 24.008L81.168 25.288C80.6453 25.896 80 26.36 79.232 26.68C78.4747 27 77.6373 27.16 76.72 27.16ZM91.0673 18.456V27H89.0833V20.152H84.8753V27H82.8753V18.456H91.0673ZM101.766 22.776C101.766 22.9147 101.755 23.112 101.734 23.368H95.0299C95.1472 23.9973 95.4512 24.4987 95.9419 24.872C96.4432 25.2347 97.0619 25.416 97.7979 25.416C98.7365 25.416 99.5099 25.1067 100.118 24.488L101.19 25.72C100.806 26.1787 100.321 26.5253 99.7339 26.76C99.1472 26.9947 98.4859 27.112 97.7499 27.112C96.8112 27.112 95.9845 26.9253 95.2699 26.552C94.5552 26.1787 94.0005 25.6613 93.6059 25C93.2219 24.328 93.0299 23.5707 93.0299 22.728C93.0299 21.896 93.2165 21.1493 93.5899 20.488C93.9739 19.816 94.5019 19.2933 95.1739 18.92C95.8459 18.5467 96.6032 18.36 97.4459 18.36C98.2779 18.36 99.0192 18.5467 99.6699 18.92C100.331 19.2827 100.843 19.8 101.206 20.472C101.579 21.1333 101.766 21.9013 101.766 22.776ZM97.4459 19.96C96.8059 19.96 96.2619 20.152 95.8139 20.536C95.3765 20.9093 95.1099 21.4107 95.0139 22.04H99.8619C99.7765 21.4213 99.5152 20.92 99.0779 20.536C98.6405 20.152 98.0965 19.96 97.4459 19.96ZM113.329 25.304V28.968H111.457V27H103.953V18.456H105.953V25.304H110.033V18.456H112.033V25.304H113.329ZM115.11 18.456H117.11V24.088L121.83 18.456H123.654V27H121.654V21.368L116.95 27H115.11V18.456ZM129.528 18.36C130.787 18.36 131.747 18.664 132.408 19.272C133.08 19.8693 133.416 20.776 133.416 21.992V27H131.528V25.96C131.283 26.3333 130.931 26.6213 130.472 26.824C130.024 27.016 129.48 27.112 128.84 27.112C128.2 27.112 127.64 27.0053 127.16 26.792C126.68 26.568 126.307 26.264 126.04 25.88C125.784 25.4853 125.656 25.0427 125.656 24.552C125.656 23.784 125.939 23.1707 126.504 22.712C127.08 22.2427 127.981 22.008 129.208 22.008H131.416V21.88C131.416 21.2827 131.235 20.824 130.872 20.504C130.52 20.184 129.992 20.024 129.288 20.024C128.808 20.024 128.333 20.0987 127.864 20.248C127.405 20.3973 127.016 20.6053 126.696 20.872L125.912 19.416C126.36 19.0747 126.899 18.8133 127.528 18.632C128.157 18.4507 128.824 18.36 129.528 18.36ZM129.256 25.656C129.757 25.656 130.2 25.544 130.584 25.32C130.979 25.0853 131.256 24.7547 131.416 24.328V23.336H129.352C128.2 23.336 127.624 23.7147 127.624 24.472C127.624 24.8347 127.768 25.1227 128.056 25.336C128.344 25.5493 128.744 25.656 129.256 25.656ZM143.635 18.456V27H141.635V20.152H138.435L138.355 21.848C138.302 22.9787 138.195 23.928 138.035 24.696C137.886 25.4533 137.624 26.056 137.251 26.504C136.888 26.9413 136.387 27.16 135.747 27.16C135.448 27.16 135.08 27.1013 134.643 26.984L134.739 25.304C134.888 25.336 135.016 25.352 135.123 25.352C135.528 25.352 135.832 25.192 136.035 24.872C136.238 24.5413 136.366 24.152 136.419 23.704C136.483 23.2453 136.536 22.5947 136.579 21.752L136.723 18.456H143.635ZM150.616 21.272C151.704 21.272 152.536 21.5173 153.112 22.008C153.699 22.4987 153.992 23.192 153.992 24.088C153.992 25.0267 153.672 25.752 153.032 26.264C152.392 26.776 151.491 27.0267 150.328 27.016L146.328 27V18.456H148.328V21.256L150.616 21.272ZM150.152 25.544C150.739 25.5547 151.187 25.432 151.496 25.176C151.806 24.92 151.96 24.5467 151.96 24.056C151.96 23.576 151.811 23.224 151.512 23C151.214 22.776 150.76 22.6587 150.152 22.648L148.328 22.632V25.528L150.152 25.544ZM155.75 18.456H157.75V21.928H162.054V18.456H164.054V27H162.054V23.624H157.75V27H155.75V18.456ZM170.543 27.112C169.679 27.112 168.9 26.9253 168.207 26.552C167.513 26.1787 166.969 25.6613 166.575 25C166.191 24.328 165.999 23.5707 165.999 22.728C165.999 21.8853 166.191 21.1333 166.575 20.472C166.969 19.8107 167.513 19.2933 168.207 18.92C168.9 18.5467 169.679 18.36 170.543 18.36C171.417 18.36 172.201 18.5467 172.895 18.92C173.588 19.2933 174.127 19.8107 174.511 20.472C174.905 21.1333 175.103 21.8853 175.103 22.728C175.103 23.5707 174.905 24.328 174.511 25C174.127 25.6613 173.588 26.1787 172.895 26.552C172.201 26.9253 171.417 27.112 170.543 27.112ZM170.543 25.4C171.279 25.4 171.887 25.1547 172.367 24.664C172.847 24.1733 173.087 23.528 173.087 22.728C173.087 21.928 172.847 21.2827 172.367 20.792C171.887 20.3013 171.279 20.056 170.543 20.056C169.807 20.056 169.199 20.3013 168.719 20.792C168.249 21.2827 168.015 21.928 168.015 22.728C168.015 23.528 168.249 24.1733 168.719 24.664C169.199 25.1547 169.807 25.4 170.543 25.4ZM75.152 47.112C74.288 47.112 73.5093 46.9253 72.816 46.552C72.1227 46.1787 71.5787 45.6613 71.184 45C70.8 44.328 70.608 43.5707 70.608 42.728C70.608 41.8853 70.8 41.1333 71.184 40.472C71.5787 39.8107 72.1227 39.2933 72.816 38.92C73.5093 38.5467 74.288 38.36 75.152 38.36C76.0267 38.36 76.8107 38.5467 77.504 38.92C78.1973 39.2933 78.736 39.8107 79.12 40.472C79.5147 41.1333 79.712 41.8853 79.712 42.728C79.712 43.5707 79.5147 44.328 79.12 45C78.736 45.6613 78.1973 46.1787 77.504 46.552C76.8107 46.9253 76.0267 47.112 75.152 47.112ZM75.152 45.4C75.888 45.4 76.496 45.1547 76.976 44.664C77.456 44.1733 77.696 43.528 77.696 42.728C77.696 41.928 77.456 41.2827 76.976 40.792C76.496 40.3013 75.888 40.056 75.152 40.056C74.416 40.056 73.808 40.3013 73.328 40.792C72.8587 41.2827 72.624 41.928 72.624 42.728C72.624 43.528 72.8587 44.1733 73.328 44.664C73.808 45.1547 74.416 45.4 75.152 45.4ZM86.3118 38.872C87.1224 38.872 87.8371 39.048 88.4558 39.4C89.0744 39.7413 89.5544 40.2213 89.8958 40.84C90.2478 41.4587 90.4238 42.168 90.4238 42.968C90.4238 43.7893 90.2318 44.52 89.8478 45.16C89.4638 45.7893 88.9251 46.28 88.2318 46.632C87.5384 46.984 86.7491 47.16 85.8638 47.16C84.3811 47.16 83.2344 46.6693 82.4238 45.688C81.6131 44.7067 81.2078 43.2933 81.2078 41.448C81.2078 39.7307 81.5758 38.3707 82.3118 37.368C83.0478 36.3653 84.1731 35.704 85.6878 35.384L89.6558 34.536L89.9438 36.328L86.3438 37.064C85.3091 37.2773 84.5358 37.64 84.0238 38.152C83.5118 38.664 83.2131 39.384 83.1278 40.312C83.5118 39.8533 83.9758 39.5013 84.5198 39.256C85.0638 39 85.6611 38.872 86.3118 38.872ZM85.9118 45.544C86.6478 45.544 87.2398 45.3093 87.6878 44.84C88.1464 44.36 88.3758 43.752 88.3758 43.016C88.3758 42.28 88.1464 41.688 87.6878 41.24C87.2398 40.792 86.6478 40.568 85.9118 40.568C85.1651 40.568 84.5624 40.792 84.1038 41.24C83.6451 41.688 83.4158 42.28 83.4158 43.016C83.4158 43.7627 83.6451 44.3707 84.1038 44.84C84.5731 45.3093 85.1758 45.544 85.9118 45.544ZM100.189 38.456L96.1893 47.688C95.8159 48.616 95.3626 49.2667 94.8293 49.64C94.2959 50.024 93.6506 50.216 92.8932 50.216C92.4666 50.216 92.0453 50.1467 91.6293 50.008C91.2133 49.8693 90.8719 49.6773 90.6052 49.432L91.4053 47.96C91.5973 48.1413 91.8213 48.2853 92.0773 48.392C92.3439 48.4987 92.6106 48.552 92.8773 48.552C93.2293 48.552 93.5173 48.4613 93.7413 48.28C93.9759 48.0987 94.1893 47.7947 94.3813 47.368L94.5253 47.032L90.7973 38.456H92.8773L95.5653 44.776L98.2693 38.456H100.189ZM108.826 38.456V47H106.826V43.688C106.005 44.0827 105.146 44.28 104.25 44.28C103.152 44.28 102.309 44.0293 101.722 43.528C101.136 43.016 100.842 42.2373 100.842 41.192V38.456H102.842V41.064C102.842 41.608 103.002 42.0133 103.322 42.28C103.642 42.5467 104.096 42.68 104.682 42.68C105.429 42.68 106.144 42.52 106.826 42.2V38.456H108.826ZM119.516 42.776C119.516 42.9147 119.505 43.112 119.484 43.368H112.78C112.897 43.9973 113.201 44.4987 113.692 44.872C114.193 45.2347 114.812 45.416 115.548 45.416C116.487 45.416 117.26 45.1067 117.868 44.488L118.94 45.72C118.556 46.1787 118.071 46.5253 117.484 46.76C116.897 46.9947 116.236 47.112 115.5 47.112C114.561 47.112 113.735 46.9253 113.02 46.552C112.305 46.1787 111.751 45.6613 111.356 45C110.972 44.328 110.78 43.5707 110.78 42.728C110.78 41.896 110.967 41.1493 111.34 40.488C111.724 39.816 112.252 39.2933 112.924 38.92C113.596 38.5467 114.353 38.36 115.196 38.36C116.028 38.36 116.769 38.5467 117.42 38.92C118.081 39.2827 118.593 39.8 118.956 40.472C119.329 41.1333 119.516 41.9013 119.516 42.776ZM115.196 39.96C114.556 39.96 114.012 40.152 113.564 40.536C113.127 40.9093 112.86 41.4107 112.764 42.04H117.612C117.527 41.4213 117.265 40.92 116.828 40.536C116.391 40.152 115.847 39.96 115.196 39.96ZM121.703 38.456H123.703V41.928H128.007V38.456H130.007V47H128.007V43.624H123.703V47H121.703V38.456ZM132.688 38.456H134.688V41.928H138.992V38.456H140.992V47H138.992V43.624H134.688V47H132.688V38.456ZM147.832 41.272C148.92 41.272 149.752 41.5173 150.328 42.008C150.904 42.4987 151.192 43.192 151.192 44.088C151.192 45.0267 150.872 45.752 150.232 46.264C149.603 46.776 148.707 47.0267 147.544 47.016L143.672 47V38.456H145.672V41.256L147.832 41.272ZM152.296 38.456H154.296V47H152.296V38.456ZM147.368 45.544C147.955 45.5547 148.403 45.432 148.712 45.176C149.021 44.92 149.176 44.5467 149.176 44.056C149.176 43.576 149.027 43.224 148.728 43C148.429 42.776 147.976 42.6587 147.368 42.648L145.672 42.632V45.528L147.368 45.544ZM164.985 42.776C164.985 42.9147 164.974 43.112 164.953 43.368H158.249C158.366 43.9973 158.67 44.4987 159.161 44.872C159.662 45.2347 160.281 45.416 161.017 45.416C161.955 45.416 162.729 45.1067 163.337 44.488L164.409 45.72C164.025 46.1787 163.539 46.5253 162.953 46.76C162.366 46.9947 161.705 47.112 160.969 47.112C160.03 47.112 159.203 46.9253 158.489 46.552C157.774 46.1787 157.219 45.6613 156.825 45C156.441 44.328 156.249 43.5707 156.249 42.728C156.249 41.896 156.435 41.1493 156.809 40.488C157.193 39.816 157.721 39.2933 158.393 38.92C159.065 38.5467 159.822 38.36 160.665 38.36C161.497 38.36 162.238 38.5467 162.889 38.92C163.55 39.2827 164.062 39.8 164.425 40.472C164.798 41.1333 164.985 41.9013 164.985 42.776ZM160.665 39.96C160.025 39.96 159.481 40.152 159.033 40.536C158.595 40.9093 158.329 41.4107 158.233 42.04H163.081C162.995 41.4213 162.734 40.92 162.297 40.536C161.859 40.152 161.315 39.96 160.665 39.96ZM179.994 47V41.336L177.114 46.104H176.25L173.418 41.32V47H171.594V38.456H173.69L176.73 43.8L179.914 38.456H181.786L181.802 47H179.994ZM192.485 42.776C192.485 42.9147 192.474 43.112 192.453 43.368H185.749C185.866 43.9973 186.17 44.4987 186.661 44.872C187.162 45.2347 187.781 45.416 188.517 45.416C189.455 45.416 190.229 45.1067 190.837 44.488L191.909 45.72C191.525 46.1787 191.039 46.5253 190.453 46.76C189.866 46.9947 189.205 47.112 188.469 47.112C187.53 47.112 186.703 46.9253 185.989 46.552C185.274 46.1787 184.719 45.6613 184.325 45C183.941 44.328 183.749 43.5707 183.749 42.728C183.749 41.896 183.935 41.1493 184.309 40.488C184.693 39.816 185.221 39.2933 185.893 38.92C186.565 38.5467 187.322 38.36 188.165 38.36C188.997 38.36 189.738 38.5467 190.389 38.92C191.05 39.2827 191.562 39.8 191.925 40.472C192.298 41.1333 192.485 41.9013 192.485 42.776ZM188.165 39.96C187.525 39.96 186.981 40.152 186.533 40.536C186.095 40.9093 185.829 41.4107 185.733 42.04H190.581C190.495 41.4213 190.234 40.92 189.797 40.536C189.359 40.152 188.815 39.96 188.165 39.96ZM199.782 47L197.59 44.04L195.382 47H193.174L196.502 42.664L193.318 38.456H195.542L197.638 41.256L199.734 38.456H201.894L198.694 42.632L202.038 47H199.782ZM206.497 38.36C207.755 38.36 208.715 38.664 209.377 39.272C210.049 39.8693 210.385 40.776 210.385 41.992V47H208.497V45.96C208.251 46.3333 207.899 46.6213 207.441 46.824C206.993 47.016 206.449 47.112 205.809 47.112C205.169 47.112 204.609 47.0053 204.129 46.792C203.649 46.568 203.275 46.264 203.009 45.88C202.753 45.4853 202.625 45.0427 202.625 44.552C202.625 43.784 202.907 43.1707 203.473 42.712C204.049 42.2427 204.95 42.008 206.177 42.008H208.385V41.88C208.385 41.2827 208.203 40.824 207.841 40.504C207.489 40.184 206.961 40.024 206.257 40.024C205.777 40.024 205.302 40.0987 204.833 40.248C204.374 40.3973 203.985 40.6053 203.665 40.872L202.881 39.416C203.329 39.0747 203.867 38.8133 204.497 38.632C205.126 38.4507 205.793 38.36 206.497 38.36ZM206.225 45.656C206.726 45.656 207.169 45.544 207.553 45.32C207.947 45.0853 208.225 44.7547 208.385 44.328V43.336H206.321C205.169 43.336 204.593 43.7147 204.593 44.472C204.593 44.8347 204.737 45.1227 205.025 45.336C205.313 45.5493 205.713 45.656 206.225 45.656ZM212.86 38.456H214.86V41.928H219.164V38.456H221.164V47H219.164V43.624H214.86V47H212.86V38.456ZM223.844 38.456H225.844V44.088L230.564 38.456H232.388V47H230.388V41.368L225.684 47H223.844V38.456ZM238.63 43.576H237.078V47H235.078V38.456H237.078V41.912H238.678L241.206 38.456H243.35L240.246 42.568L243.558 47H241.206L238.63 43.576ZM244.969 38.456H246.969V44.088L251.689 38.456H253.513V47H251.513V41.368L246.809 47H244.969V38.456Z" fill="white"/>
</svg>
